<svg width="36" height="32" viewBox="0 0 36 32" fill="none" xmlns="http://www.w3.org/2000/svg">
<g clip-path="url(#clip0_171_314)">
<path fill-rule="evenodd" clip-rule="evenodd" d="M18.2621 0.956909C8.47739 0.956909 0.552246 7.7289 0.552246 16.0898C0.552246 22.7862 5.62168 28.4421 12.6613 30.4472C13.5468 30.5796 13.8789 30.1256 13.8789 29.7284C13.8789 29.369 13.8568 28.1773 13.8568 26.9099C9.40716 27.6098 8.25602 25.983 7.90183 25.1318C7.70259 24.6967 6.83924 23.3537 6.08657 22.9942C5.46672 22.7105 4.58123 22.0106 6.06443 21.9917C7.45908 21.9728 8.45526 23.0888 8.78732 23.5428C10.3812 25.8317 12.927 25.1885 13.9453 24.7913C14.1003 23.8076 14.5651 23.1456 15.0743 22.7673C11.1339 22.3889 7.01633 21.0837 7.01633 15.2954C7.01633 13.6497 7.70259 12.2877 8.83159 11.2284C8.65449 10.8501 8.03465 9.29894 9.00869 7.21816C9.00869 7.21816 10.4919 6.82092 13.8789 8.76929C15.2957 8.4288 16.801 8.25855 18.3063 8.25855C19.8117 8.25855 21.317 8.4288 22.7338 8.76929C26.1208 6.80201 27.604 7.21816 27.604 7.21816C28.5781 9.29894 27.9582 10.8501 27.7811 11.2284C28.9101 12.2877 29.5964 13.6307 29.5964 15.2954C29.5964 21.1026 25.4567 22.3889 21.5163 22.7673C22.1582 23.2402 22.7117 24.1481 22.7117 25.5668C22.7117 27.5909 22.6895 29.2177 22.6895 29.7284C22.6895 30.1256 23.0216 30.5985 23.9071 30.4472C27.4227 29.433 30.4777 27.5022 32.642 24.9267C34.8062 22.3512 35.9708 19.2606 35.9719 16.0898C35.9719 7.7289 28.0468 0.956909 18.2621 0.956909Z" fill="black"/>
</g>
<defs>
<clipPath id="clip0_171_314">
<rect x="0.552246" y="0.956909" width="35.4197" height="30.2659" rx="15.1329" fill="white"/>
</clipPath>
</defs>
</svg>
