<svg width="36" height="31" viewBox="0 0 36 31" fill="none" xmlns="http://www.w3.org/2000/svg">
<g clip-path="url(#clip0_171_321)">
<path d="M35.6834 15.4437C35.6834 7.03357 27.7538 0.216187 17.9735 0.216187C8.18885 0.218078 0.259277 7.03357 0.259277 15.4456C0.259277 23.0442 6.73665 29.3433 15.2019 30.4858V19.8455H10.7081V15.4456H15.2064V12.088C15.2064 8.27258 17.8518 6.16532 21.8963 6.16532C23.8355 6.16532 25.861 6.46231 25.861 6.46231V10.2077H23.6274C21.4292 10.2077 20.7429 11.3824 20.7429 12.5874V15.4437H25.653L24.8693 19.8436H20.7407V30.4839C29.206 29.3414 35.6834 23.0423 35.6834 15.4437Z" fill="#059BE5"/>
</g>
<defs>
<clipPath id="clip0_171_321">
<rect x="0.263672" y="0.217957" width="35.4197" height="30.2659" rx="15.1329" fill="white"/>
</clipPath>
</defs>
</svg>
