<svg width="36" height="31" viewBox="0 0 36 31" fill="none" xmlns="http://www.w3.org/2000/svg">
<g clip-path="url(#clip0_171_308)">
<path d="M35.3913 12.3869H33.9648V12.3241H18.0262V18.3772H28.0348C26.5746 21.9008 22.6511 24.4302 18.0262 24.4302C12.1582 24.4302 7.40052 20.3648 7.40052 15.3506C7.40052 10.3364 12.1582 6.27103 18.0262 6.27103C20.7349 6.27103 23.1992 7.14418 25.0755 8.57043L30.0847 4.29016C26.9217 1.77133 22.6909 0.217957 18.0262 0.217957C8.24615 0.217957 0.316711 6.99361 0.316711 15.3506C0.316711 23.7076 8.24615 30.4833 18.0262 30.4833C27.8063 30.4833 35.7358 23.7076 35.7358 15.3506C35.7358 14.336 35.6136 13.3456 35.3913 12.3869Z" fill="#FFC107"/>
<path d="M2.35748 8.30713L8.17595 11.9533C9.75032 8.62264 13.5632 6.27103 18.0251 6.27103C20.7338 6.27103 23.1981 7.14418 25.0744 8.57043L30.0835 4.29016C26.9206 1.77133 22.6898 0.217957 18.0251 0.217957C11.2229 0.217957 5.32383 3.49948 2.35748 8.30713Z" fill="#FF3D00"/>
<path d="M18.0265 30.4838C22.6009 30.4838 26.7573 28.988 29.8999 26.5554L24.4188 22.5921C22.581 23.7864 20.3354 24.4323 18.0265 24.4308C13.4203 24.4308 9.50913 21.921 8.0357 18.4185L2.26062 22.2206C5.19155 27.1213 11.1437 30.4838 18.0265 30.4838Z" fill="#4CAF50"/>
<path d="M35.3913 12.3869H33.9648V12.3241H18.0262V18.3772H28.0348C27.3363 20.0542 26.0782 21.5196 24.4158 22.5924L24.4185 22.5909L29.8996 26.5541C29.5118 26.8552 35.7358 22.917 35.7358 15.3506C35.7358 14.336 35.6136 13.3456 35.3913 12.3869Z" fill="#1976D2"/>
</g>
<defs>
<clipPath id="clip0_171_308">
<rect x="0.316711" y="0.217957" width="35.4197" height="30.2659" rx="15.1329" fill="white"/>
</clipPath>
</defs>
</svg>
