<svg width="47" height="41" viewBox="0 0 47 41" fill="none" xmlns="http://www.w3.org/2000/svg">
<g clip-path="url(#clip0_30_164)">
<path d="M23.5 41C36.4787 41 47 31.8218 47 20.5C47 9.17816 36.4787 0 23.5 0C10.5213 0 0 9.17816 0 20.5C0 31.8218 10.5213 41 23.5 41Z" fill="#F0F0F0"/>
<path d="M47 20.5C47 11.6857 40.6226 4.17159 31.6738 1.27509V39.725C40.6226 36.8284 47 29.3143 47 20.5Z" fill="#D80027"/>
<path d="M0 20.5C0 29.3143 6.3774 36.8284 15.3261 39.7249V1.27509C6.3774 4.17159 0 11.6857 0 20.5Z" fill="#0052B4"/>
</g>
<defs>
<clipPath id="clip0_30_164">
<rect width="47" height="41" fill="white"/>
</clipPath>
</defs>
</svg>
