<svg width="35" height="332" viewBox="0 0 35 332" fill="none" xmlns="http://www.w3.org/2000/svg">
<path d="M15 5.0002C15 4.55817 14.8683 4.13425 14.6339 3.82169C14.3995 3.50913 14.0815 3.33353 13.75 3.33353H13.675C13.5015 3.33197 13.3297 3.37858 13.1704 3.4704C13.0112 3.56222 12.868 3.69724 12.75 3.86687L7.4 11.6669H3.75C3.41848 11.6669 3.10054 11.8425 2.86612 12.155C2.6317 12.4676 2.5 12.8915 2.5 13.3335V26.6669C2.5 27.1089 2.6317 27.5328 2.86612 27.8454C3.10054 28.1579 3.41848 28.3335 3.75 28.3335H7.4L12.75 36.1335C12.868 36.3032 13.0112 36.4382 13.1704 36.53C13.3297 36.6218 13.5015 36.6684 13.675 36.6669H13.75C14.0815 36.6669 14.3995 36.4913 14.6339 36.1787C14.8683 35.8662 15 35.4422 15 35.0002V5.0002ZM18.875 34.5835C18.15 34.8169 17.5 34.0335 17.5 33.0502V33.0002C17.5 32.1669 17.9625 31.4669 18.5625 31.2502C20.4108 30.5733 22.0413 29.1058 23.2034 27.0734C24.3655 25.0409 24.9949 22.5559 24.9949 20.0002C24.9949 17.4445 24.3655 14.9595 23.2034 12.927C22.0413 10.8946 20.4108 9.42712 18.5625 8.7502C18.2657 8.65499 18.0007 8.43191 17.8086 8.11553C17.6165 7.79914 17.508 7.40712 17.5 7.0002V6.9502C17.5 5.9502 18.15 5.18353 18.875 5.41687C21.3306 6.2051 23.5158 8.07217 25.0788 10.7175C26.6419 13.3629 27.4918 16.6325 27.4918 20.0002C27.4918 23.3679 26.6419 26.6375 25.0788 29.2829C23.5158 31.9282 21.3306 33.7953 18.875 34.5835Z" fill="#ABABAB"/>
<path d="M18.95 27.5166C18.2375 27.9833 17.5 27.1833 17.5 26.1333V25.8999C17.5 25.1833 17.85 24.5666 18.2875 24.1999C18.8138 23.7467 19.2465 23.1248 19.5462 22.3911C19.8458 21.6574 20.0028 20.8353 20.0028 19.9999C20.0028 19.1645 19.8458 18.3424 19.5462 17.6088C19.2465 16.8751 18.8138 16.2532 18.2875 15.7999C17.85 15.4166 17.5 14.7999 17.5 14.0999V13.8666C17.5 12.8166 18.2375 12.0333 18.95 12.4833C20.0135 13.162 20.9113 14.2279 21.5397 15.5579C22.1682 16.888 22.5016 18.4279 22.5016 19.9999C22.5016 21.5719 22.1682 23.1119 21.5397 24.4419C20.9113 25.772 20.0135 26.8379 18.95 27.5166Z" fill="#ABABAB"/>
<path d="M17 297C17 296.558 16.8683 296.134 16.6339 295.822C16.3995 295.509 16.0815 295.334 15.75 295.334H15.675C15.5015 295.332 15.3297 295.379 15.1704 295.47C15.0112 295.562 14.868 295.697 14.75 295.867L9.4 303.667H5.75C5.41848 303.667 5.10054 303.842 4.86612 304.155C4.6317 304.468 4.5 304.892 4.5 305.334V318.667C4.5 319.109 4.6317 319.533 4.86612 319.845C5.10054 320.158 5.41848 320.334 5.75 320.334H9.4L14.75 328.134C14.868 328.303 15.0112 328.438 15.1704 328.53C15.3297 328.622 15.5015 328.668 15.675 328.667H15.75C16.0815 328.667 16.3995 328.491 16.6339 328.179C16.8683 327.866 17 327.442 17 327V297ZM20.875 326.584C20.15 326.817 19.5 326.034 19.5 325.05V325C19.5 324.167 19.9625 323.467 20.5625 323.25C22.4108 322.573 24.0413 321.106 25.2034 319.073C26.3655 317.041 26.9949 314.556 26.9949 312C26.9949 309.444 26.3655 306.959 25.2034 304.927C24.0413 302.895 22.4108 301.427 20.5625 300.75C20.2657 300.655 20.0007 300.432 19.8086 300.116C19.6165 299.799 19.508 299.407 19.5 299V298.95C19.5 297.95 20.15 297.184 20.875 297.417C23.3306 298.205 25.5158 300.072 27.0788 302.718C28.6419 305.363 29.4918 308.633 29.4918 312C29.4918 315.368 28.6419 318.638 27.0788 321.283C25.5158 323.928 23.3306 325.795 20.875 326.584Z" fill="#ABABAB"/>
<path d="M20.95 319.517C20.2375 319.983 19.5 319.183 19.5 318.133V317.9C19.5 317.183 19.85 316.567 20.2875 316.2C20.8138 315.747 21.2465 315.125 21.5462 314.391C21.8458 313.657 22.0028 312.835 22.0028 312C22.0028 311.165 21.8458 310.342 21.5462 309.609C21.2465 308.875 20.8138 308.253 20.2875 307.8C19.85 307.417 19.5 306.8 19.5 306.1V305.867C19.5 304.817 20.2375 304.033 20.95 304.483C22.0135 305.162 22.9113 306.228 23.5397 307.558C24.1682 308.888 24.5016 310.428 24.5016 312C24.5016 313.572 24.1682 315.112 23.5397 316.442C22.9113 317.772 22.0135 318.838 20.95 319.517Z" fill="#ABABAB"/>
<path d="M20 199C20 198.558 19.8683 198.134 19.6339 197.822C19.3995 197.509 19.0815 197.334 18.75 197.334H18.675C18.5015 197.332 18.3297 197.379 18.1704 197.47C18.0112 197.562 17.868 197.697 17.75 197.867L12.4 205.667H8.75C8.41848 205.667 8.10054 205.842 7.86612 206.155C7.6317 206.468 7.5 206.892 7.5 207.334V220.667C7.5 221.109 7.6317 221.533 7.86612 221.845C8.10054 222.158 8.41848 222.334 8.75 222.334H12.4L17.75 230.134C17.868 230.303 18.0112 230.438 18.1704 230.53C18.3297 230.622 18.5015 230.668 18.675 230.667H18.75C19.0815 230.667 19.3995 230.491 19.6339 230.179C19.8683 229.866 20 229.442 20 229V199ZM23.875 228.584C23.15 228.817 22.5 228.034 22.5 227.05V227C22.5 226.167 22.9625 225.467 23.5625 225.25C25.4108 224.573 27.0413 223.106 28.2034 221.073C29.3655 219.041 29.9949 216.556 29.9949 214C29.9949 211.444 29.3655 208.959 28.2034 206.927C27.0413 204.895 25.4108 203.427 23.5625 202.75C23.2657 202.655 23.0007 202.432 22.8086 202.116C22.6165 201.799 22.508 201.407 22.5 201V200.95C22.5 199.95 23.15 199.184 23.875 199.417C26.3306 200.205 28.5158 202.072 30.0788 204.718C31.6419 207.363 32.4918 210.633 32.4918 214C32.4918 217.368 31.6419 220.638 30.0788 223.283C28.5158 225.928 26.3306 227.795 23.875 228.584Z" fill="#ABABAB"/>
<path d="M23.95 221.517C23.2375 221.983 22.5 221.183 22.5 220.133V219.9C22.5 219.183 22.85 218.567 23.2875 218.2C23.8138 217.747 24.2465 217.125 24.5462 216.391C24.8458 215.657 25.0028 214.835 25.0028 214C25.0028 213.165 24.8458 212.342 24.5462 211.609C24.2465 210.875 23.8138 210.253 23.2875 209.8C22.85 209.417 22.5 208.8 22.5 208.1V207.867C22.5 206.817 23.2375 206.033 23.95 206.483C25.0135 207.162 25.9113 208.228 26.5397 209.558C27.1682 210.888 27.5016 212.428 27.5016 214C27.5016 215.572 27.1682 217.112 26.5397 218.442C25.9113 219.772 25.0135 220.838 23.95 221.517Z" fill="#ABABAB"/>
<path d="M20 103C20 102.558 19.8683 102.134 19.6339 101.822C19.3995 101.509 19.0815 101.334 18.75 101.334H18.675C18.5015 101.332 18.3297 101.379 18.1704 101.47C18.0112 101.562 17.868 101.697 17.75 101.867L12.4 109.667H8.75C8.41848 109.667 8.10054 109.842 7.86612 110.155C7.6317 110.468 7.5 110.892 7.5 111.334V124.667C7.5 125.109 7.6317 125.533 7.86612 125.845C8.10054 126.158 8.41848 126.334 8.75 126.334H12.4L17.75 134.134C17.868 134.303 18.0112 134.438 18.1704 134.53C18.3297 134.622 18.5015 134.668 18.675 134.667H18.75C19.0815 134.667 19.3995 134.491 19.6339 134.179C19.8683 133.866 20 133.442 20 133V103ZM23.875 132.584C23.15 132.817 22.5 132.034 22.5 131.05V131C22.5 130.167 22.9625 129.467 23.5625 129.25C25.4108 128.573 27.0413 127.106 28.2034 125.073C29.3655 123.041 29.9949 120.556 29.9949 118C29.9949 115.444 29.3655 112.959 28.2034 110.927C27.0413 108.895 25.4108 107.427 23.5625 106.75C23.2657 106.655 23.0007 106.432 22.8086 106.116C22.6165 105.799 22.508 105.407 22.5 105V104.95C22.5 103.95 23.15 103.184 23.875 103.417C26.3306 104.205 28.5158 106.072 30.0788 108.718C31.6419 111.363 32.4918 114.633 32.4918 118C32.4918 121.368 31.6419 124.638 30.0788 127.283C28.5158 129.928 26.3306 131.795 23.875 132.584Z" fill="#ABABAB"/>
<path d="M23.95 125.517C23.2375 125.983 22.5 125.183 22.5 124.133V123.9C22.5 123.183 22.85 122.567 23.2875 122.2C23.8138 121.747 24.2465 121.125 24.5462 120.391C24.8458 119.657 25.0028 118.835 25.0028 118C25.0028 117.165 24.8458 116.342 24.5462 115.609C24.2465 114.875 23.8138 114.253 23.2875 113.8C22.85 113.417 22.5 112.8 22.5 112.1V111.867C22.5 110.817 23.2375 110.033 23.95 110.483C25.0135 111.162 25.9113 112.228 26.5397 113.558C27.1682 114.888 27.5016 116.428 27.5016 118C27.5016 119.572 27.1682 121.112 26.5397 122.442C25.9113 123.772 25.0135 124.838 23.95 125.517Z" fill="#ABABAB"/>
</svg>
