<svg width="35" height="349" viewBox="0 0 35 349" fill="none" xmlns="http://www.w3.org/2000/svg">
<path d="M15 5.0002C15 4.55817 14.8683 4.13425 14.6339 3.82169C14.3995 3.50913 14.0815 3.33353 13.75 3.33353H13.675C13.5015 3.33197 13.3297 3.37858 13.1704 3.4704C13.0112 3.56222 12.868 3.69724 12.75 3.86687L7.4 11.6669H3.75C3.41848 11.6669 3.10054 11.8425 2.86612 12.155C2.6317 12.4676 2.5 12.8915 2.5 13.3335V26.6669C2.5 27.1089 2.6317 27.5328 2.86612 27.8454C3.10054 28.1579 3.41848 28.3335 3.75 28.3335H7.4L12.75 36.1335C12.868 36.3032 13.0112 36.4382 13.1704 36.53C13.3297 36.6218 13.5015 36.6684 13.675 36.6669H13.75C14.0815 36.6669 14.3995 36.4913 14.6339 36.1787C14.8683 35.8662 15 35.4422 15 35.0002V5.0002ZM18.875 34.5835C18.15 34.8169 17.5 34.0335 17.5 33.0502V33.0002C17.5 32.1669 17.9625 31.4669 18.5625 31.2502C20.4108 30.5733 22.0413 29.1058 23.2034 27.0734C24.3655 25.0409 24.9949 22.5559 24.9949 20.0002C24.9949 17.4445 24.3655 14.9595 23.2034 12.927C22.0413 10.8946 20.4108 9.42712 18.5625 8.7502C18.2657 8.65499 18.0007 8.43191 17.8086 8.11553C17.6165 7.79914 17.508 7.40712 17.5 7.0002V6.9502C17.5 5.9502 18.15 5.18353 18.875 5.41687C21.3306 6.2051 23.5158 8.07217 25.0788 10.7175C26.6419 13.3629 27.4918 16.6325 27.4918 20.0002C27.4918 23.3679 26.6419 26.6375 25.0788 29.2829C23.5158 31.9282 21.3306 33.7953 18.875 34.5835Z" fill="#ABABAB"/>
<path d="M18.95 27.5166C18.2375 27.9833 17.5 27.1833 17.5 26.1333V25.8999C17.5 25.1833 17.85 24.5666 18.2875 24.1999C18.8138 23.7467 19.2465 23.1248 19.5462 22.3911C19.8458 21.6574 20.0028 20.8353 20.0028 19.9999C20.0028 19.1645 19.8458 18.3424 19.5462 17.6088C19.2465 16.8751 18.8138 16.2532 18.2875 15.7999C17.85 15.4166 17.5 14.7999 17.5 14.0999V13.8666C17.5 12.8166 18.2375 12.0333 18.95 12.4833C20.0135 13.162 20.9113 14.2279 21.5397 15.5579C22.1682 16.888 22.5016 18.4279 22.5016 19.9999C22.5016 21.5719 22.1682 23.1119 21.5397 24.4419C20.9113 25.772 20.0135 26.8379 18.95 27.5166Z" fill="#ABABAB"/>
<path d="M15 314C15 313.558 14.8683 313.134 14.6339 312.822C14.3995 312.509 14.0815 312.334 13.75 312.334H13.675C13.5015 312.332 13.3297 312.379 13.1704 312.47C13.0112 312.562 12.868 312.697 12.75 312.867L7.4 320.667H3.75C3.41848 320.667 3.10054 320.842 2.86612 321.155C2.6317 321.468 2.5 321.892 2.5 322.334V335.667C2.5 336.109 2.6317 336.533 2.86612 336.845C3.10054 337.158 3.41848 337.334 3.75 337.334H7.4L12.75 345.134C12.868 345.303 13.0112 345.438 13.1704 345.53C13.3297 345.622 13.5015 345.668 13.675 345.667H13.75C14.0815 345.667 14.3995 345.491 14.6339 345.179C14.8683 344.866 15 344.442 15 344V314ZM18.875 343.584C18.15 343.817 17.5 343.034 17.5 342.05V342C17.5 341.167 17.9625 340.467 18.5625 340.25C20.4108 339.573 22.0413 338.106 23.2034 336.073C24.3655 334.041 24.9949 331.556 24.9949 329C24.9949 326.444 24.3655 323.959 23.2034 321.927C22.0413 319.895 20.4108 318.427 18.5625 317.75C18.2657 317.655 18.0007 317.432 17.8086 317.116C17.6165 316.799 17.508 316.407 17.5 316V315.95C17.5 314.95 18.15 314.184 18.875 314.417C21.3306 315.205 23.5158 317.072 25.0788 319.718C26.6419 322.363 27.4918 325.633 27.4918 329C27.4918 332.368 26.6419 335.638 25.0788 338.283C23.5158 340.928 21.3306 342.795 18.875 343.584Z" fill="#ABABAB"/>
<path d="M18.95 336.517C18.2375 336.983 17.5 336.183 17.5 335.133V334.9C17.5 334.183 17.85 333.567 18.2875 333.2C18.8138 332.747 19.2465 332.125 19.5462 331.391C19.8458 330.657 20.0028 329.835 20.0028 329C20.0028 328.165 19.8458 327.342 19.5462 326.609C19.2465 325.875 18.8138 325.253 18.2875 324.8C17.85 324.417 17.5 323.8 17.5 323.1V322.867C17.5 321.817 18.2375 321.033 18.95 321.483C20.0135 322.162 20.9113 323.228 21.5397 324.558C22.1682 325.888 22.5016 327.428 22.5016 329C22.5016 330.572 22.1682 332.112 21.5397 333.442C20.9113 334.772 20.0135 335.838 18.95 336.517Z" fill="#ABABAB"/>
<path d="M20 210C20 209.558 19.8683 209.134 19.6339 208.822C19.3995 208.509 19.0815 208.334 18.75 208.334H18.675C18.5015 208.332 18.3297 208.379 18.1704 208.47C18.0112 208.562 17.868 208.697 17.75 208.867L12.4 216.667H8.75C8.41848 216.667 8.10054 216.842 7.86612 217.155C7.6317 217.468 7.5 217.892 7.5 218.334V231.667C7.5 232.109 7.6317 232.533 7.86612 232.845C8.10054 233.158 8.41848 233.334 8.75 233.334H12.4L17.75 241.134C17.868 241.303 18.0112 241.438 18.1704 241.53C18.3297 241.622 18.5015 241.668 18.675 241.667H18.75C19.0815 241.667 19.3995 241.491 19.6339 241.179C19.8683 240.866 20 240.442 20 240V210ZM23.875 239.584C23.15 239.817 22.5 239.034 22.5 238.05V238C22.5 237.167 22.9625 236.467 23.5625 236.25C25.4108 235.573 27.0413 234.106 28.2034 232.073C29.3655 230.041 29.9949 227.556 29.9949 225C29.9949 222.444 29.3655 219.959 28.2034 217.927C27.0413 215.895 25.4108 214.427 23.5625 213.75C23.2657 213.655 23.0007 213.432 22.8086 213.116C22.6165 212.799 22.508 212.407 22.5 212V211.95C22.5 210.95 23.15 210.184 23.875 210.417C26.3306 211.205 28.5158 213.072 30.0788 215.718C31.6419 218.363 32.4918 221.633 32.4918 225C32.4918 228.368 31.6419 231.638 30.0788 234.283C28.5158 236.928 26.3306 238.795 23.875 239.584Z" fill="#ABABAB"/>
<path d="M23.95 232.517C23.2375 232.983 22.5 232.183 22.5 231.133V230.9C22.5 230.183 22.85 229.567 23.2875 229.2C23.8138 228.747 24.2465 228.125 24.5462 227.391C24.8458 226.657 25.0028 225.835 25.0028 225C25.0028 224.165 24.8458 223.342 24.5462 222.609C24.2465 221.875 23.8138 221.253 23.2875 220.8C22.85 220.417 22.5 219.8 22.5 219.1V218.867C22.5 217.817 23.2375 217.033 23.95 217.483C25.0135 218.162 25.9113 219.228 26.5397 220.558C27.1682 221.888 27.5016 223.428 27.5016 225C27.5016 226.572 27.1682 228.112 26.5397 229.442C25.9113 230.772 25.0135 231.838 23.95 232.517Z" fill="#ABABAB"/>
<path d="M20 103C20 102.558 19.8683 102.134 19.6339 101.822C19.3995 101.509 19.0815 101.334 18.75 101.334H18.675C18.5015 101.332 18.3297 101.379 18.1704 101.47C18.0112 101.562 17.868 101.697 17.75 101.867L12.4 109.667H8.75C8.41848 109.667 8.10054 109.842 7.86612 110.155C7.6317 110.468 7.5 110.892 7.5 111.334V124.667C7.5 125.109 7.6317 125.533 7.86612 125.845C8.10054 126.158 8.41848 126.334 8.75 126.334H12.4L17.75 134.134C17.868 134.303 18.0112 134.438 18.1704 134.53C18.3297 134.622 18.5015 134.668 18.675 134.667H18.75C19.0815 134.667 19.3995 134.491 19.6339 134.179C19.8683 133.866 20 133.442 20 133V103ZM23.875 132.584C23.15 132.817 22.5 132.034 22.5 131.05V131C22.5 130.167 22.9625 129.467 23.5625 129.25C25.4108 128.573 27.0413 127.106 28.2034 125.073C29.3655 123.041 29.9949 120.556 29.9949 118C29.9949 115.444 29.3655 112.959 28.2034 110.927C27.0413 108.895 25.4108 107.427 23.5625 106.75C23.2657 106.655 23.0007 106.432 22.8086 106.116C22.6165 105.799 22.508 105.407 22.5 105V104.95C22.5 103.95 23.15 103.184 23.875 103.417C26.3306 104.205 28.5158 106.072 30.0788 108.718C31.6419 111.363 32.4918 114.633 32.4918 118C32.4918 121.368 31.6419 124.638 30.0788 127.283C28.5158 129.928 26.3306 131.795 23.875 132.584Z" fill="#ABABAB"/>
<path d="M23.95 125.517C23.2375 125.983 22.5 125.183 22.5 124.133V123.9C22.5 123.183 22.85 122.567 23.2875 122.2C23.8138 121.747 24.2465 121.125 24.5462 120.391C24.8458 119.657 25.0028 118.835 25.0028 118C25.0028 117.165 24.8458 116.342 24.5462 115.609C24.2465 114.875 23.8138 114.253 23.2875 113.8C22.85 113.417 22.5 112.8 22.5 112.1V111.867C22.5 110.817 23.2375 110.033 23.95 110.483C25.0135 111.162 25.9113 112.228 26.5397 113.558C27.1682 114.888 27.5016 116.428 27.5016 118C27.5016 119.572 27.1682 121.112 26.5397 122.442C25.9113 123.772 25.0135 124.838 23.95 125.517Z" fill="#ABABAB"/>
</svg>
