<svg width="35" height="332" viewBox="0 0 35 332" fill="none" xmlns="http://www.w3.org/2000/svg">
<path d="M20 5.00069C20 4.55866 19.8683 4.13474 19.6339 3.82218C19.3995 3.50962 19.0815 3.33402 18.75 3.33402H18.675C18.5015 3.33246 18.3297 3.37907 18.1704 3.47089C18.0112 3.56271 17.868 3.69773 17.75 3.86736L12.4 11.6674H8.75C8.41848 11.6674 8.10054 11.843 7.86612 12.1555C7.6317 12.4681 7.5 12.892 7.5 13.334V26.6674C7.5 27.1094 7.6317 27.5333 7.86612 27.8459C8.10054 28.1584 8.41848 28.334 8.75 28.334H12.4L17.75 36.134C17.868 36.3036 18.0112 36.4387 18.1704 36.5305C18.3297 36.6223 18.5015 36.6689 18.675 36.6674H18.75C19.0815 36.6674 19.3995 36.4918 19.6339 36.1792C19.8683 35.8666 20 35.4427 20 35.0007V5.00069ZM23.875 34.584C23.15 34.8174 22.5 34.034 22.5 33.0507V33.0007C22.5 32.1674 22.9625 31.4674 23.5625 31.2507C25.4108 30.5738 27.0413 29.1063 28.2034 27.0739C29.3655 25.0414 29.9949 22.5564 29.9949 20.0007C29.9949 17.445 29.3655 14.9599 28.2034 12.9275C27.0413 10.895 25.4108 9.42761 23.5625 8.75069C23.2657 8.65548 23.0007 8.4324 22.8086 8.11602C22.6165 7.79963 22.508 7.40761 22.5 7.00069V6.95069C22.5 5.95069 23.15 5.18402 23.875 5.41736C26.3306 6.20559 28.5158 8.07266 30.0788 10.718C31.6419 13.3633 32.4918 16.633 32.4918 20.0007C32.4918 23.3683 31.6419 26.638 30.0788 29.2834C28.5158 31.9287 26.3306 33.7958 23.875 34.584Z" fill="#ABABAB"/>
<path d="M23.95 27.5166C23.2375 27.9833 22.5 27.1833 22.5 26.1333V25.8999C22.5 25.1833 22.85 24.5666 23.2875 24.1999C23.8138 23.7467 24.2465 23.1248 24.5462 22.3911C24.8458 21.6574 25.0028 20.8353 25.0028 19.9999C25.0028 19.1645 24.8458 18.3424 24.5462 17.6088C24.2465 16.8751 23.8138 16.2532 23.2875 15.7999C22.85 15.4166 22.5 14.7999 22.5 14.0999V13.8666C22.5 12.8166 23.2375 12.0333 23.95 12.4833C25.0135 13.162 25.9113 14.2279 26.5397 15.5579C27.1682 16.888 27.5016 18.4279 27.5016 19.9999C27.5016 21.5719 27.1682 23.1119 26.5397 24.4419C25.9113 25.772 25.0135 26.8379 23.95 27.5166Z" fill="#ABABAB"/>
<path d="M15 297.001C15 296.559 14.8683 296.135 14.6339 295.822C14.3995 295.51 14.0815 295.334 13.75 295.334H13.675C13.5015 295.332 13.3297 295.379 13.1704 295.471C13.0112 295.563 12.868 295.698 12.75 295.867L7.4 303.667H3.75C3.41848 303.667 3.10054 303.843 2.86612 304.156C2.6317 304.468 2.5 304.892 2.5 305.334V318.667C2.5 319.109 2.6317 319.533 2.86612 319.846C3.10054 320.158 3.41848 320.334 3.75 320.334H7.4L12.75 328.134C12.868 328.304 13.0112 328.439 13.1704 328.53C13.3297 328.622 13.5015 328.669 13.675 328.667H13.75C14.0815 328.667 14.3995 328.492 14.6339 328.179C14.8683 327.867 15 327.443 15 327.001V297.001ZM18.875 326.584C18.15 326.817 17.5 326.034 17.5 325.051V325.001C17.5 324.167 17.9625 323.467 18.5625 323.251C20.4108 322.574 22.0413 321.106 23.2034 319.074C24.3655 317.041 24.9949 314.556 24.9949 312.001C24.9949 309.445 24.3655 306.96 23.2034 304.927C22.0413 302.895 20.4108 301.428 18.5625 300.751C18.2657 300.655 18.0007 300.432 17.8086 300.116C17.6165 299.8 17.508 299.408 17.5 299.001V298.951C17.5 297.951 18.15 297.184 18.875 297.417C21.3306 298.206 23.5158 300.073 25.0788 302.718C26.6419 305.363 27.4918 308.633 27.4918 312.001C27.4918 315.368 26.6419 318.638 25.0788 321.283C23.5158 323.929 21.3306 325.796 18.875 326.584Z" fill="#ABABAB"/>
<path d="M18.95 319.517C18.2375 319.983 17.5 319.183 17.5 318.133V317.9C17.5 317.183 17.85 316.567 18.2875 316.2C18.8138 315.747 19.2465 315.125 19.5462 314.391C19.8458 313.657 20.0028 312.835 20.0028 312C20.0028 311.165 19.8458 310.342 19.5462 309.609C19.2465 308.875 18.8138 308.253 18.2875 307.8C17.85 307.417 17.5 306.8 17.5 306.1V305.867C17.5 304.817 18.2375 304.033 18.95 304.483C20.0135 305.162 20.9113 306.228 21.5397 307.558C22.1682 308.888 22.5016 310.428 22.5016 312C22.5016 313.572 22.1682 315.112 21.5397 316.442C20.9113 317.772 20.0135 318.838 18.95 319.517Z" fill="#ABABAB"/>
<path d="M15 207.001C15 206.559 14.8683 206.135 14.6339 205.822C14.3995 205.51 14.0815 205.334 13.75 205.334H13.675C13.5015 205.332 13.3297 205.379 13.1704 205.471C13.0112 205.563 12.868 205.698 12.75 205.867L7.4 213.667H3.75C3.41848 213.667 3.10054 213.843 2.86612 214.156C2.6317 214.468 2.5 214.892 2.5 215.334V228.667C2.5 229.109 2.6317 229.533 2.86612 229.846C3.10054 230.158 3.41848 230.334 3.75 230.334H7.4L12.75 238.134C12.868 238.304 13.0112 238.439 13.1704 238.53C13.3297 238.622 13.5015 238.669 13.675 238.667H13.75C14.0815 238.667 14.3995 238.492 14.6339 238.179C14.8683 237.867 15 237.443 15 237.001V207.001ZM18.875 236.584C18.15 236.817 17.5 236.034 17.5 235.051V235.001C17.5 234.167 17.9625 233.467 18.5625 233.251C20.4108 232.574 22.0413 231.106 23.2034 229.074C24.3655 227.041 24.9949 224.556 24.9949 222.001C24.9949 219.445 24.3655 216.96 23.2034 214.927C22.0413 212.895 20.4108 211.428 18.5625 210.751C18.2657 210.655 18.0007 210.432 17.8086 210.116C17.6165 209.8 17.508 209.408 17.5 209.001V208.951C17.5 207.951 18.15 207.184 18.875 207.417C21.3306 208.206 23.5158 210.073 25.0788 212.718C26.6419 215.363 27.4918 218.633 27.4918 222.001C27.4918 225.368 26.6419 228.638 25.0788 231.283C23.5158 233.929 21.3306 235.796 18.875 236.584Z" fill="#ABABAB"/>
<path d="M18.95 229.517C18.2375 229.983 17.5 229.183 17.5 228.133V227.9C17.5 227.183 17.85 226.567 18.2875 226.2C18.8138 225.747 19.2465 225.125 19.5462 224.391C19.8458 223.657 20.0028 222.835 20.0028 222C20.0028 221.165 19.8458 220.342 19.5462 219.609C19.2465 218.875 18.8138 218.253 18.2875 217.8C17.85 217.417 17.5 216.8 17.5 216.1V215.867C17.5 214.817 18.2375 214.033 18.95 214.483C20.0135 215.162 20.9113 216.228 21.5397 217.558C22.1682 218.888 22.5016 220.428 22.5016 222C22.5016 223.572 22.1682 225.112 21.5397 226.442C20.9113 227.772 20.0135 228.838 18.95 229.517Z" fill="#ABABAB"/>
<path d="M18 103.001C18 102.559 17.8683 102.135 17.6339 101.822C17.3995 101.51 17.0815 101.334 16.75 101.334H16.675C16.5015 101.332 16.3297 101.379 16.1704 101.471C16.0112 101.563 15.868 101.698 15.75 101.867L10.4 109.667H6.75C6.41848 109.667 6.10054 109.843 5.86612 110.156C5.6317 110.468 5.5 110.892 5.5 111.334V124.667C5.5 125.109 5.6317 125.533 5.86612 125.846C6.10054 126.158 6.41848 126.334 6.75 126.334H10.4L15.75 134.134C15.868 134.304 16.0112 134.439 16.1704 134.53C16.3297 134.622 16.5015 134.669 16.675 134.667H16.75C17.0815 134.667 17.3995 134.492 17.6339 134.179C17.8683 133.867 18 133.443 18 133.001V103.001ZM21.875 132.584C21.15 132.817 20.5 132.034 20.5 131.051V131.001C20.5 130.167 20.9625 129.467 21.5625 129.251C23.4108 128.574 25.0413 127.106 26.2034 125.074C27.3655 123.041 27.9949 120.556 27.9949 118.001C27.9949 115.445 27.3655 112.96 26.2034 110.927C25.0413 108.895 23.4108 107.428 21.5625 106.751C21.2657 106.655 21.0007 106.432 20.8086 106.116C20.6165 105.8 20.508 105.408 20.5 105.001V104.951C20.5 103.951 21.15 103.184 21.875 103.417C24.3306 104.206 26.5158 106.073 28.0788 108.718C29.6419 111.363 30.4918 114.633 30.4918 118.001C30.4918 121.368 29.6419 124.638 28.0788 127.283C26.5158 129.929 24.3306 131.796 21.875 132.584Z" fill="#ABABAB"/>
<path d="M21.95 125.517C21.2375 125.983 20.5 125.183 20.5 124.133V123.9C20.5 123.183 20.85 122.567 21.2875 122.2C21.8138 121.747 22.2465 121.125 22.5462 120.391C22.8458 119.657 23.0028 118.835 23.0028 118C23.0028 117.165 22.8458 116.342 22.5462 115.609C22.2465 114.875 21.8138 114.253 21.2875 113.8C20.85 113.417 20.5 112.8 20.5 112.1V111.867C20.5 110.817 21.2375 110.033 21.95 110.483C23.0135 111.162 23.9113 112.228 24.5397 113.558C25.1682 114.888 25.5016 116.428 25.5016 118C25.5016 119.572 25.1682 121.112 24.5397 122.442C23.9113 123.772 23.0135 124.838 21.95 125.517Z" fill="#ABABAB"/>
</svg>
