<svg width="237" height="163" viewBox="0 0 237 163" fill="none" xmlns="http://www.w3.org/2000/svg">
<path d="M232.178 63.0895C229.069 60.9547 224.934 59.7786 220.529 59.7786C220.513 59.7786 220.498 59.7786 220.49 59.7786C216.108 59.7839 211.988 60.9653 208.902 63.0895L207.275 64.202L205.662 63.0948C202.484 60.9123 198.333 59.6303 193.773 59.7839C189.461 59.8263 185.426 61.0023 182.386 63.0948C179.323 65.1979 177.557 68.1486 177.557 71.1894C177.557 74.1454 179.277 76.9478 182.379 79.0773L205.307 94.8268C205.824 95.1817 206.534 95.383 207.275 95.383C208.015 95.383 208.725 95.1817 209.242 94.8268L232.17 79.0773C235.28 76.9425 237 74.1348 237 71.1629C237 68.1327 235.241 65.1926 232.178 63.0895ZM228.251 76.3756L207.282 90.7742L186.321 76.3756C184.261 74.9612 183.127 73.123 183.127 71.1841C183.127 69.1499 184.284 67.1845 186.321 65.786C188.334 64.398 191.004 63.6193 193.858 63.5928H194.028C196.937 63.5928 199.668 64.3662 201.735 65.786L205.315 68.244C206.403 68.9909 208.154 68.9856 209.242 68.244L212.837 65.786C214.889 64.3768 217.612 63.5981 220.513 63.5875H220.536C223.453 63.5875 226.191 64.3662 228.259 65.786C230.288 67.1792 231.445 69.134 231.445 71.1576C231.445 73.1124 230.311 74.9612 228.251 76.3756ZM41.3041 95.3777H2.776C1.71134 95.3777 0.74698 94.9592 0.284087 94.3076C-0.186521 93.6507 -0.0630829 92.872 0.584968 92.2999L17.28 77.5676L0.584968 62.8565C-0.0630829 62.2843 -0.186521 61.5003 0.284087 60.8487C0.74698 60.1918 1.71134 59.7786 2.776 59.7786H41.3041C42.8394 59.7786 44.0815 60.6315 44.0815 61.6857V69.6319H38.5268V63.5928H8.46187L22.989 76.3968C23.7682 77.0855 23.7682 78.0496 22.989 78.7383L8.46187 91.5582H38.5345V85.5244H44.0892V93.4706C44.0815 94.5248 42.8394 95.3777 41.3041 95.3777ZM157.73 21.2129H145.532V17.3987H153.857C153.386 16.5564 153.023 15.6029 153.023 14.3739C153.023 6.79848 161.047 1.5063 172.527 1.5063C180.805 1.5063 187.933 5.95618 189.924 7.32293L185.989 10.0194C182.841 7.85268 177.426 5.32048 172.534 5.32048C166.1 5.32048 158.586 7.69376 158.586 14.3739C158.586 15.8148 159.195 16.5988 160.175 17.3987H184.107V21.2129H164.349C164.951 22.1294 165.398 23.1942 165.398 24.6033C165.398 28.3963 162.652 31.0716 158.686 33.2912H187.964V37.1054H149.39C148.132 37.1054 147.029 36.5227 146.705 35.6857C146.381 34.8487 146.913 33.9693 148.009 33.5402C155.685 30.5365 159.836 28.2215 159.836 24.6033C159.836 22.9505 159.002 22.1559 157.73 21.2129ZM198.426 162.338H192.871C192.871 139.299 170.212 119.042 137.771 113.071C136.66 112.87 135.858 112.229 135.727 111.445C135.588 110.672 136.174 109.914 137.177 109.548C150.123 104.791 158.162 95.5843 158.162 85.5244C158.162 70.5113 140.371 58.29 118.499 58.29C96.6353 58.29 78.8371 70.506 78.8371 85.5244C78.8371 95.5843 86.876 104.791 99.8216 109.548C100.832 109.919 101.411 110.682 101.272 111.461C101.133 112.24 100.308 112.886 99.1889 113.077C66.771 118.697 44.1278 138.955 44.1278 162.338H38.5731C38.5731 138.669 60.1825 117.982 91.8367 110.597C80.2643 104.791 73.2901 95.5313 73.2901 85.5244C73.2901 68.4082 93.5725 54.4811 118.499 54.4811C143.426 54.4811 163.716 68.4082 163.716 85.5244C163.716 95.5525 156.711 104.839 145.085 110.634C176.785 118.305 198.426 138.992 198.426 162.338ZM72.8812 32.5866C66.8018 35.5373 58.8941 37.1054 49.0962 37.1054V33.2912C56.9191 33.2912 63.361 32.2476 68.3294 30.1975C63.0061 26.9077 59.5961 23.0247 58.2692 19.8303L63.6079 18.7814C64.7728 21.5785 67.8279 25.0059 72.7269 27.8401C72.7655 27.8136 72.8195 27.7977 72.858 27.7712C80.3801 22.5691 81.005 14.8454 81.0281 10.618H49.0962V6.80378H69.4635V0.764648H75.0182V6.80378H95.3855V10.618H86.5828C86.5597 15.2533 85.8499 23.8034 77.2864 30.0597C82.0928 31.9827 88.0949 33.2912 95.3932 33.2912V37.1054C86.1354 37.1054 78.7136 35.2248 72.8812 32.5866Z" fill="#FFF9F9"/>
</svg>
