<svg width="30" height="40" viewBox="0 0 30 40" fill="none" xmlns="http://www.w3.org/2000/svg">
<path d="M15 5.0002C15 4.55817 14.8683 4.13425 14.6339 3.82169C14.3995 3.50913 14.0815 3.33353 13.75 3.33353H13.675C13.5015 3.33197 13.3297 3.37858 13.1704 3.4704C13.0112 3.56222 12.868 3.69724 12.75 3.86687L7.4 11.6669H3.75C3.41848 11.6669 3.10054 11.8425 2.86612 12.155C2.6317 12.4676 2.5 12.8915 2.5 13.3335V26.6669C2.5 27.1089 2.6317 27.5328 2.86612 27.8454C3.10054 28.1579 3.41848 28.3335 3.75 28.3335H7.4L12.75 36.1335C12.868 36.3032 13.0112 36.4382 13.1704 36.53C13.3297 36.6218 13.5015 36.6684 13.675 36.6669H13.75C14.0815 36.6669 14.3995 36.4913 14.6339 36.1787C14.8683 35.8662 15 35.4422 15 35.0002V5.0002ZM18.875 34.5835C18.15 34.8169 17.5 34.0335 17.5 33.0502V33.0002C17.5 32.1669 17.9625 31.4669 18.5625 31.2502C20.4108 30.5733 22.0413 29.1058 23.2034 27.0734C24.3655 25.0409 24.9949 22.5559 24.9949 20.0002C24.9949 17.4445 24.3655 14.9595 23.2034 12.927C22.0413 10.8946 20.4108 9.42712 18.5625 8.7502C18.2657 8.65499 18.0007 8.43191 17.8086 8.11553C17.6165 7.79914 17.508 7.40712 17.5 7.0002V6.9502C17.5 5.9502 18.15 5.18353 18.875 5.41687C21.3306 6.2051 23.5158 8.07217 25.0788 10.7175C26.6419 13.3629 27.4918 16.6325 27.4918 20.0002C27.4918 23.3679 26.6419 26.6375 25.0788 29.2829C23.5158 31.9282 21.3306 33.7953 18.875 34.5835Z" fill="#ABABAB"/>
<path d="M18.95 27.5166C18.2375 27.9833 17.5 27.1833 17.5 26.1333V25.8999C17.5 25.1833 17.85 24.5666 18.2875 24.1999C18.8138 23.7467 19.2465 23.1248 19.5462 22.3911C19.8458 21.6574 20.0028 20.8353 20.0028 19.9999C20.0028 19.1645 19.8458 18.3424 19.5462 17.6088C19.2465 16.8751 18.8138 16.2532 18.2875 15.7999C17.85 15.4166 17.5 14.7999 17.5 14.0999V13.8666C17.5 12.8166 18.2375 12.0333 18.95 12.4833C20.0135 13.162 20.9113 14.2279 21.5397 15.5579C22.1682 16.888 22.5016 18.4279 22.5016 19.9999C22.5016 21.5719 22.1682 23.1119 21.5397 24.4419C20.9113 25.772 20.0135 26.8379 18.95 27.5166Z" fill="#ABABAB"/>
</svg>
