<svg width="415" height="358" viewBox="0 0 415 358" fill="none" xmlns="http://www.w3.org/2000/svg">
<path fill-rule="evenodd" clip-rule="evenodd" d="M168.861 151.939C168.436 152.446 167.193 157.577 172.075 157.577C172.928 157.578 173.753 157.389 174.399 157.044C175.045 156.698 175.469 156.221 175.593 155.698C176.624 149.946 170.559 149.965 168.861 151.939ZM212.831 151.863C213.104 153.856 213.468 155.622 216.682 155.622C217.535 155.623 218.36 155.434 219.006 155.089C219.652 154.744 220.076 154.266 220.2 153.743C220.265 152.534 220.051 151.325 219.563 150.153C217.804 148.142 212.376 148.631 212.831 151.863ZM191.604 170.019C192.544 170.019 200.701 169.775 202.612 168.854C203.188 168.591 203.127 168.083 203.127 167.613C202.945 162.282 202.114 156.967 200.641 151.713C200.641 151.431 200.246 151.375 200.004 151.412C199.761 151.45 199.64 151.713 199.67 152.164C199.67 153.705 199.458 154.232 200.337 162.858C200.913 168.497 200.671 166.918 200.853 167.858C198.009 168.503 195.089 169.012 192.12 169.38C190.148 169.643 191.543 170.019 191.604 170.019ZM201.186 183.025C198.937 183.773 196.456 184.215 193.909 184.322C193.78 184.322 193.657 184.354 193.566 184.41C193.475 184.466 193.423 184.543 193.423 184.623C193.423 184.702 193.475 184.779 193.566 184.835C193.657 184.892 193.78 184.923 193.909 184.923C195.333 185.241 196.855 185.355 198.361 185.258C199.867 185.16 201.318 184.854 202.606 184.361C203.894 183.867 204.986 183.201 205.801 182.41C206.616 181.619 207.132 180.724 207.312 179.792C207.328 179.754 207.331 179.714 207.322 179.675C207.314 179.636 207.292 179.598 207.26 179.564C207.228 179.53 207.185 179.501 207.134 179.477C207.083 179.453 207.025 179.436 206.963 179.426C206.901 179.416 206.837 179.414 206.774 179.419C206.711 179.425 206.65 179.438 206.595 179.458C206.54 179.478 206.492 179.505 206.454 179.536C206.416 179.568 206.388 179.604 206.372 179.642C205.144 181.028 203.357 182.194 201.186 183.025ZM65.2743 38.08C73.0675 54.2247 100.632 53.4353 103.846 54.6382C103.846 54.8261 110.154 69.8807 112.701 71.9482C114.126 73.0946 117.553 72.6436 119.827 72.3804C125.164 71.7226 131.35 71.5159 135.869 69.2793C137.021 68.6967 136.354 66.3285 136.05 65.5203C135.085 62.1409 133.748 58.8065 132.048 55.5403C131.379 54.555 130.812 53.5443 130.35 52.5144C132.442 51.3654 134.718 50.3516 137.142 49.4884C141.143 47.799 144.702 45.7389 147.695 43.3801C153.485 38.1228 156.102 31.7693 155.088 25.4351C154.073 19.1008 149.491 13.1904 142.146 8.74142C119.676 -4.92236 79.0414 -0.468004 65.8504 16.7668C61.3322 22.7435 62.2116 31.8026 65.2743 38.08ZM134.474 68.3771C130.441 70.3882 124.497 70.6513 119.312 71.3091C117.917 71.4971 114.611 72.0045 113.732 71.3091C112.016 69.774 110.782 68.0526 110.093 66.2345C117.948 65.5484 125.631 64.2475 132.957 62.3628C133.949 64.3088 134.46 66.3365 134.474 68.3771ZM132.624 61.5922C124.875 62.4873 117.266 63.7952 109.881 65.5015C109.098 63.3202 108.085 61.173 106.848 59.0737C114.683 58.5652 122.367 57.3888 129.682 55.5779C130.906 57.5647 131.919 59.5989 132.715 61.6674L132.624 61.5922ZM67.7608 17.3494C80.4666 1.07317 119.312 -3.04288 140.538 9.83152C147.438 14.0257 151.754 19.583 152.739 25.5415C153.725 31.4999 151.318 37.4845 145.936 42.4592C140.69 47.0451 130.077 50.2026 128.439 51.8566C127.863 52.4392 128.924 53.924 129.591 54.9765C126.135 55.39 122.344 55.8974 118.948 56.3673C118.038 53.7924 113.793 43.3989 112.216 40.9556C111.609 39.9783 111.064 40.0535 109.456 40.3354C100.602 40.3354 90.8677 38.9446 87.7444 33.776C87.367 33.1702 87.1025 32.5396 86.9559 31.8965C86.5314 29.1901 89.9883 26.0326 93.8092 26.2581C93.2633 28.3255 93.8092 32.2724 96.6596 33.4565C99.5101 34.6406 102.724 32.7611 102.724 31.0696C102.563 29.8498 101.923 28.6729 100.861 27.6412C99.7986 26.6094 98.346 25.754 96.6293 25.1492C97.106 24.4783 97.8124 23.8796 98.6996 23.3947C99.5868 22.9098 100.634 22.5503 101.767 22.3411C102.901 22.1319 104.094 22.078 105.265 22.1832C106.436 22.2884 107.555 22.5501 108.547 22.9502C106.151 25.8446 108.547 32.4792 112.792 30.9192C117.037 29.3593 115.642 25.5251 113.004 23.4013C111.731 22.3676 111.458 22.6495 112.095 22.3488C117.037 20.1122 122.647 22.7059 125.013 26.1078C128.409 30.7877 121.131 36.5576 116.522 38.3056C116.409 38.3479 116.328 38.4163 116.297 38.4956C116.266 38.5749 116.287 38.6587 116.355 38.7284C116.423 38.7982 116.534 38.8483 116.662 38.8677C116.79 38.8871 116.925 38.8742 117.037 38.8318C122.678 36.7832 129.804 30.7501 126.559 25.6755C123.314 20.6009 115.157 18.6463 110.002 21.6722C108.704 21.1202 107.223 20.7557 105.667 20.6057C104.112 20.4556 102.522 20.5237 101.015 20.8051C99.5073 21.0864 98.121 21.5738 96.9579 22.2313C95.7949 22.8888 94.8847 23.6997 94.2943 24.6042C88.6541 24.1531 83.8932 28.2316 84.53 31.9341C84.8726 33.5706 85.8706 35.1279 87.4331 36.464C88.9956 37.8002 91.0729 38.8726 93.4756 39.5836C96.326 40.4294 106.454 41.9705 110.457 41.2563C111.852 43.1358 116.916 54.1683 117.826 56.4801C104.362 58.3595 107.091 59.2429 106.424 58.0212C105.636 56.4989 105.15 54.2623 104.483 54.1119C87.7444 51.7626 72.643 50.0335 67.0027 37.7229C64.2433 31.765 63.5155 22.9315 67.7608 17.3494ZM95.9015 26.634C97.0506 27.1393 98.0108 27.7919 98.7172 28.5475C99.4235 29.3031 99.8594 30.144 99.9952 31.0132C99.9952 31.5207 98.1455 32.8927 96.9629 31.3891C96.0575 29.8709 95.7356 28.2428 96.0228 26.634H95.9015ZM110.214 23.7584C112.64 25.2244 114.157 28.6451 111.518 29.6412C110.604 28.7838 110.012 27.81 109.786 26.7918C109.561 25.7735 109.707 24.7369 110.214 23.7584ZM19.2425 95.498C31.5843 93.111 46.5341 95.1784 52.2956 103.636C62.2722 117.958 35.8903 125.25 36.1632 126.002C36.7697 127.881 37.8614 131.17 38.3162 133.069C38.3524 133.228 38.4894 133.372 38.697 133.469C38.9045 133.566 39.1657 133.608 39.4231 133.586C39.6804 133.563 39.9129 133.478 40.0693 133.35C40.2257 133.221 40.2932 133.059 40.257 132.9C39.8931 131.02 39.4989 128.314 39.0744 126.359C43.3618 125.293 47.3291 123.787 50.8097 121.905C72.2185 106.249 48.3232 86.4953 17.7869 92.6787C12.9517 93.5526 8.67512 95.3376 5.55068 97.786C2.42624 100.234 0.608834 103.225 0.350612 106.343C-0.619756 113.748 8.90198 120.138 24.2762 119.311C24.508 119.286 24.7179 119.211 24.8692 119.099C25.0205 118.987 25.1034 118.846 25.1034 118.7C25.1034 118.554 25.0205 118.413 24.8692 118.301C24.7179 118.19 24.508 118.115 24.2762 118.089C10.6304 118.522 3.32236 112.451 4.62629 106.624C4.92837 104.065 6.49257 101.625 9.10699 99.6344C11.7214 97.6442 15.2597 96.2002 19.2425 95.498ZM245.732 46.4625C245.99 46.5048 246.264 46.4821 246.494 46.3993C246.724 46.3165 246.892 46.1803 246.96 46.0208C247.029 45.8613 246.992 45.6915 246.859 45.5487C246.725 45.406 246.505 45.302 246.248 45.2596C233.118 42.9667 229.327 35.7683 233.572 30.4869C235.226 28.1282 238.01 26.1417 241.547 24.7968C245.083 23.452 249.202 22.8139 253.344 22.969C276.147 23.3261 286.154 36.3321 277.603 45.6167C271.932 51.9693 264.351 53.6797 254.648 54.469C254.341 54.4957 254.057 54.5835 253.838 54.7192C253.619 54.8548 253.478 55.0309 253.435 55.2208C253.101 56.9499 252.373 60.3518 251.827 62.3252C251.775 62.4823 251.826 62.6457 251.968 62.7797C252.11 62.9136 252.332 63.007 252.586 63.0394C252.839 63.0718 253.103 63.0405 253.319 62.9524C253.535 62.8643 253.686 62.7266 253.738 62.5696C254.435 60.5397 255.375 58.1528 256.012 56.1418C260.619 55.9882 265.151 55.3527 269.415 54.2623C279.695 50.5033 285.942 44.5642 285.123 37.0463C283.213 19.398 241.669 13.083 229.721 29.5284C225.082 36.2193 230.722 44.3575 245.732 46.4625ZM414.212 134.647C413.865 131.164 411.86 127.822 408.451 125.043C405.171 122.756 401.171 120.909 396.697 119.616C392.222 118.323 387.368 117.612 382.433 117.525C377.41 117.381 372.438 118.208 368.206 119.891C363.974 121.575 360.691 124.032 358.811 126.923C354.05 133.745 359.781 141.695 374.731 143.951C374.864 143.988 375.009 144.007 375.155 144.005C375.301 144.004 375.445 143.983 375.576 143.944C375.708 143.905 375.824 143.848 375.916 143.778C376.009 143.708 376.075 143.626 376.111 143.538C376.147 143.45 376.152 143.359 376.125 143.27C376.097 143.181 376.039 143.096 375.954 143.023C375.868 142.949 375.758 142.888 375.631 142.844C375.503 142.8 375.361 142.773 375.216 142.767C362.176 140.323 358.295 133.369 362.571 127.994C364.224 125.635 367.008 123.649 370.545 122.304C374.082 120.959 378.2 120.321 382.342 120.476C386.547 120.549 390.685 121.149 394.506 122.241C398.326 123.333 401.75 124.893 404.569 126.829C407.41 129.126 409.097 131.891 409.421 134.779C411.574 151.356 382.766 151.412 382.494 152.728C382.13 154.607 381.463 157.915 380.886 159.832C380.834 159.989 380.885 160.153 381.027 160.287C381.169 160.421 381.391 160.514 381.644 160.547C381.898 160.579 382.162 160.548 382.378 160.46C382.594 160.371 382.745 160.234 382.797 160.077C383.525 158.066 384.434 155.66 385.071 153.649C389.686 153.488 394.226 152.853 398.505 151.769C408.633 148.086 415.031 142.241 414.212 134.647ZM51.8104 147.315C53.1144 143.97 49.2026 140.455 45.3211 140.737C42.8038 140.568 40.2687 140.524 37.7401 140.605C31.1598 141.583 28.0667 146.92 34.2528 149.533C41.3486 152.465 50.5368 150.435 51.8104 147.315ZM47.1102 146.939C46.0333 147.496 44.7143 147.843 43.3197 147.935C35.0716 148.65 33.3128 144.176 38.8621 142.71L45.3817 141.959C48.2019 142.109 48.8387 145.849 47.1102 146.845V146.939ZM249.311 69.5048C242.245 67.9073 234.603 72.8503 239.607 77.0227C244.61 81.1952 254.526 81.1952 257.377 78.4135C260.227 75.6319 258.499 71.4219 254.678 70.8956C254.344 70.8017 251.706 70.0499 249.311 69.5048ZM253.131 77.0227C251.775 77.3088 250.322 77.3727 248.914 77.208C247.506 77.0434 246.191 76.6558 245.096 76.083C244.2 75.6842 243.463 75.1634 242.943 74.5606C242.063 73.0382 245.217 71.4783 247.521 71.3843L254.071 71.9669C256.619 72.8127 255.345 76.4965 253.131 77.0791V77.0227ZM383.646 168.516C383.039 168.346 379.916 167.538 378.309 167.162C371.213 165.565 363.602 170.508 368.605 174.68C373.609 178.853 383.494 178.853 386.375 176.071C389.256 173.289 387.497 169.042 383.646 168.516ZM382.099 174.737C380.742 175.021 379.29 175.084 377.883 174.919C376.475 174.755 375.16 174.368 374.063 173.797C373.175 173.385 372.441 172.86 371.91 172.256C371.061 170.752 374.185 169.192 376.489 169.098L383.039 169.681C385.587 170.47 384.313 174.135 382.099 174.737Z" fill="black"/>
<path fill-rule="evenodd" clip-rule="evenodd" d="M358.871 272.188C352.807 253.694 329.215 225.201 300.892 217.927L295.191 210.541C295.15 210.487 295.091 210.44 295.018 210.401C294.946 210.363 294.86 210.335 294.768 210.319C294.676 210.303 294.58 210.299 294.485 210.308C294.391 210.318 294.3 210.339 294.221 210.372L288.156 212.796C286.229 204.819 280.348 197.41 271.326 191.596C277.633 185.563 287.731 183.721 298.163 183.439C306.805 183.213 313.173 182.894 318.177 178.308C328.093 169.249 325.758 160.415 314.113 151.995C296.374 139.177 289.399 143.011 280.757 135.926C264.321 122.619 260.591 102.941 236.393 92.6978C205.462 79.7106 188.784 90.1793 182.295 93.412C172.803 89.841 151.637 91.0814 142.54 95.9117C134.807 100.009 124.558 105.309 120.585 111.229C112.125 123.728 113.035 138.519 100.663 149.853C97.6302 152.672 92.4448 154.57 88.7756 157.239C83.7393 161.153 79.455 165.416 76.0092 169.944C71.5212 175.207 68.0946 181.052 72.1883 186.502C77.677 193.795 89.9582 200.749 103.058 200.223C110.639 199.903 120.676 197.084 127.803 198.944C132.048 200.035 133.685 202.572 136.9 204.696C144.178 209.714 161.159 211.236 170.559 207.759C160.219 215.916 144.45 215.634 116.947 225.032C74.7356 239.428 59.331 255.78 54.8127 272.526C53.0843 277.736 51.8089 283 50.9919 288.295C48.384 315.603 61.7569 350.223 105.12 355.956C117.007 357.535 130.623 358.549 142.388 356.726C164.677 353.287 191.271 343.984 210.799 336.428C219.897 332.913 253.556 318.836 269.203 316.994C270.145 322.01 272.185 326.923 275.268 331.598C287.792 347.555 307.836 356.99 335.916 352.892C354.111 350.242 359.296 338.232 359.781 326.73C368.909 314.589 361.661 281.021 358.871 272.188ZM253.95 184.191C259.348 184.811 263.048 187.95 267.05 190.506C277.633 197.065 284.911 204.094 287.095 213.059C278.331 216.518 272.63 218.698 272.509 218.811C272.387 218.923 268.172 212.27 265.625 211.462C261.814 210.289 258.357 208.719 255.406 206.819C253.132 205.26 250.342 202.515 250.706 200.448C252.318 199.917 254.077 199.579 255.891 199.452V198.287C246.521 198.456 243.307 203.756 242.458 204.94C241.851 205.786 241.002 206.632 239.061 206.5C237.121 206.368 236.423 204.978 237.151 203.737C237.879 202.497 239.637 197.046 252.04 195.862C252.195 195.849 252.345 195.816 252.48 195.767C252.615 195.717 252.733 195.652 252.827 195.574C252.922 195.497 252.99 195.408 253.03 195.314C253.069 195.22 253.078 195.122 253.056 195.026C253.034 194.93 252.982 194.837 252.902 194.753C252.822 194.669 252.717 194.596 252.592 194.538C252.466 194.479 252.324 194.437 252.172 194.412C252.02 194.388 251.862 194.383 251.706 194.396C249.111 194.601 246.595 195.091 244.277 195.843C242.194 196.474 240.344 197.366 238.846 198.463C237.348 199.559 236.234 200.837 235.574 202.215C234.118 204.79 229.024 203.643 230.237 201.425C231.458 199.268 233.274 197.258 235.604 195.486C238.192 193.957 241.301 192.807 244.702 192.122C247.37 191.445 249.644 191.765 250.251 191.22C250.857 190.675 249.432 188.852 248.704 188.307C244.793 185.412 233.542 187.912 229.236 184.679C226.477 182.555 232.269 182.48 234.604 182.292C241.154 181.841 247.37 183.42 253.95 184.191ZM265.079 230.764C256.411 232.515 247.568 233.915 238.606 234.955C241.639 224.261 243.701 215.089 243.398 211.763C250.463 212.608 258.56 213.21 267.414 214.112C269.81 216.574 271.114 218.641 271.69 219.224L265.807 221.536C265.504 221.78 265.564 220.765 265.079 230.764ZM232.147 285.062C233.49 288.671 234.443 292.332 234.998 296.019C222.565 295.531 213.074 295.625 208.404 295.512C208.586 290.231 208.677 288.595 208.828 287.487C216.481 286.284 224.28 285.473 232.147 285.062ZM184.448 238.771C201.651 238.847 218.83 237.979 235.786 236.177C230.389 254.22 222.171 275.909 218.289 280.251C209.374 265.177 210.284 265.121 184.448 238.771ZM220.837 280.006C225.749 273.184 233.209 252.829 238.182 235.876C247.233 234.825 256.159 233.393 264.897 231.591C263.957 251.889 263.684 277.225 265.655 297.579C259.894 297.26 251.524 296.809 243.398 296.414C242.882 293.369 240.85 282.769 239.122 279.987C238.667 279.236 238.121 278.935 236.09 278.897C231.018 279.035 225.971 279.406 220.988 280.006H220.837ZM231.662 208.304C228.591 207.191 226.138 205.527 224.627 203.53C226.031 203.897 227.495 204.168 228.994 204.339C229.562 204.735 230.296 205.027 231.114 205.183C231.932 205.339 232.804 205.352 233.633 205.222C234.998 204.959 234.118 204.846 234.846 206.03C235.126 206.507 235.597 206.932 236.214 207.265C236.832 207.598 237.577 207.828 238.378 207.933C239.179 208.039 240.01 208.016 240.792 207.867C241.575 207.718 242.284 207.448 242.852 207.083C244.034 206.425 244.125 205.635 245.551 203.944C246.946 203.775 248.31 203.549 249.644 203.305C253.253 209.169 264.564 212.007 265.352 212.439C252.04 211.217 240.244 210.447 231.814 208.304H231.662ZM173.531 206.049C180.809 200.824 179.323 197.084 171.833 193.381C156.671 186.014 158.551 187.987 152.183 179.755C144.693 166.392 151.152 145.342 156.701 131.641C158.218 127.882 168.558 123.859 176.078 124.461C186.51 125.288 182.143 128.69 191.058 130.626C192.606 130.906 194.207 131.058 195.819 131.077C195.915 131.095 196.015 131.102 196.115 131.096C196.215 131.091 196.312 131.073 196.4 131.044C196.489 131.015 196.568 130.976 196.632 130.928C196.696 130.881 196.745 130.826 196.774 130.767C196.804 130.707 196.815 130.645 196.806 130.583C196.797 130.521 196.769 130.461 196.722 130.406C196.676 130.351 196.612 130.303 196.535 130.263C196.458 130.223 196.37 130.193 196.274 130.174C191.545 128.416 187.185 126.301 183.295 123.878C185.145 119.198 189.845 116.642 198.67 116.605C204.735 116.605 209.526 119.462 213.832 121.905C219.047 124.856 224.657 132.825 224.233 137.204C223.274 142.278 225.193 147.401 229.661 151.694C232.693 154.965 238.394 157.803 241.79 160.566C243.671 162.107 242.579 168.986 241.487 172.012C240.062 174.662 237.03 179.717 236.332 180.864C223.657 181.146 224.203 185.356 230.267 187.16C224.597 191.37 210.739 196.05 220.655 201.952C222.777 204.714 226.174 208.492 230.722 209.639C233.95 210.45 237.289 211.079 240.699 211.518C241.366 214.431 239.183 224.073 235.847 235.294C218.443 237.088 200.815 237.912 183.174 237.756C172.227 226.648 161.341 216.123 158.581 214.431C164.708 212.501 169.914 209.611 173.683 206.049H173.531ZM152.85 215.954C158.915 214.544 155.883 214.788 157.338 215.484C158.794 216.179 168.801 226.009 180.415 237.68C166.648 237.549 151.152 236.91 145.299 236.496C147.058 235.632 142.51 220.784 140.751 218.904C145.148 217.814 149.211 216.856 153.002 215.954H152.85ZM138.507 219.487C141 225.021 142.695 230.682 143.571 236.402C130.486 235.24 117.651 233.179 105.302 230.257C115.884 226.061 127.047 222.457 138.659 219.487H138.507ZM141.266 355.373C129.895 357.14 116.583 356.106 105.12 354.584C87.1987 352.197 74.7962 344.773 66.73 335.263C53.903 320.227 50.0822 297.88 53.994 282.224C54.7824 279.085 55.7831 275.984 56.6321 272.827C61.4537 254.915 79.0113 241.421 103.513 231.215C127.56 236.684 143.723 238.601 181.506 238.733C207.676 265.046 208.252 267.677 215.742 280.551C213.438 280.814 202.763 282.149 200.944 283.07C200.216 283.427 200.216 284.141 200.944 295.437C173.349 295.775 146.361 298.444 120.98 308.593C117.947 295.042 121.435 290.945 128.5 283.183C139.599 270.985 137.597 268.729 130.592 261.794C129.438 260.858 128.611 259.782 128.166 258.637C128.166 258.186 125.134 257.565 129.41 262.226C135.475 269.068 137.112 270.684 126.377 282.431C118.523 291.039 115.309 295.456 120.04 308.988C117.917 309.871 115.491 310.867 113.156 312.032C109.589 313.589 106.241 315.331 103.149 317.239C103.089 317.311 103.077 317.395 103.117 317.473C103.157 317.55 103.245 317.615 103.361 317.652C103.478 317.69 103.614 317.697 103.739 317.672C103.864 317.647 103.968 317.593 104.029 317.521C104.969 316.487 120.646 310.003 124.861 308.668C148.393 301.319 174.411 294.967 217.016 296.715C216.479 307.888 218.345 319.057 222.565 329.925C200.671 338.496 169.559 351.013 141.418 355.373H141.266ZM224.445 329.173C220.549 318.574 218.828 307.713 219.32 296.846C265.352 298.726 250.918 298.124 265.777 298.726C266.323 304.214 267.141 310.172 268.354 315.641C256.467 317.013 235.089 325.095 224.597 329.173H224.445ZM334.643 351.539C307.866 355.467 288.853 346.408 276.784 331.072C263.442 314.156 265.655 240.688 266.414 221.968L294.13 211.33C331.549 261.418 336.037 266.154 344.437 282.75C355.293 303.894 369.606 346.54 334.794 351.539H334.643ZM359.084 322.783C358.381 312.719 355.879 302.734 351.624 293.012C342.011 269.838 331.61 258.223 302.833 220.728L303.682 220.446C329.093 228.866 350.623 255.009 356.264 272.47C359.357 281.585 365.27 311.393 359.235 322.783H359.084Z" fill="black"/>
</svg>
